<svg width="18" height="18" viewBox="0 0 18 18" fill="none" xmlns="http://www.w3.org/2000/svg">
<g clip-path="url(#clip0_105_14)">
<path d="M18 13.629L14.2525 9.87976V12.8573H13.8857C12.1713 12.8573 11.0661 11.8465 10.0643 10.4341C9.78809 10.885 9.49685 11.3538 9.1814 11.8188C10.318 13.2621 11.7506 14.4002 13.8857 14.4002H14.2525V17.3774L18 13.629Z" fill="#05FF05"/>
<path d="M18 4.3718L14.2526 0.622559V3.60012H13.8857C10.6245 3.60012 9.0019 6.25526 7.57034 8.59786C6.17358 10.8833 4.96737 12.8572 2.57143 12.8572H0V14.4001H2.57143C5.83263 14.4001 7.45523 11.7449 8.8868 9.40234C10.2836 7.1168 11.4898 5.14291 13.8857 5.14291H14.2526V8.12016L18 4.3718Z" fill="#05FF05"/>
<path d="M2.57143 3.6001H0V5.14296H2.57143C4.28586 5.14296 5.39107 6.15378 6.39285 7.56611C6.66904 7.11523 6.96027 6.64646 7.27573 6.18141C6.13912 4.73811 4.70644 3.6001 2.57143 3.6001Z" fill="#05FF05"/>
</g>
<defs>
<clipPath id="clip0_105_14">
<rect width="18" height="18" fill="white"/>
</clipPath>
</defs>
</svg>
